<svg width="124" height="124" viewBox="0 0 124 124" fill="none" xmlns="http://www.w3.org/2000/svg">
<path d="M23.25 113.667C21.1833 113.667 19.375 112.892 17.825 111.342C16.275 109.792 15.5 107.983 15.5 105.917V25.8333C15.5 23.7666 16.275 21.9583 17.825 20.4083C19.375 18.8583 21.1833 18.0833 23.25 18.0833H31.6458V10.3333H40.0417V18.0833H83.9583V10.3333H92.3542V18.0833H100.75C102.817 18.0833 104.625 18.8583 106.175 20.4083C107.725 21.9583 108.5 23.7666 108.5 25.8333V105.917C108.5 107.983 107.725 109.792 106.175 111.342C104.625 112.892 102.817 113.667 100.75 113.667H23.25ZM23.25 105.917H100.75V50.3749H23.25V105.917ZM23.25 42.6249H100.75V25.8333H23.25V42.6249ZM62 72.3333C60.5361 72.3333 59.309 71.8381 58.3187 70.8478C57.3285 69.8576 56.8333 68.6305 56.8333 67.1666C56.8333 65.7027 57.3285 64.4756 58.3187 63.4853C59.309 62.4951 60.5361 61.9999 62 61.9999C63.4639 61.9999 64.691 62.4951 65.6812 63.4853C66.6715 64.4756 67.1667 65.7027 67.1667 67.1666C67.1667 68.6305 66.6715 69.8576 65.6812 70.8478C64.691 71.8381 63.4639 72.3333 62 72.3333ZM41.3333 72.3333C39.8694 72.3333 38.6424 71.8381 37.6521 70.8478C36.6618 69.8576 36.1667 68.6305 36.1667 67.1666C36.1667 65.7027 36.6618 64.4756 37.6521 63.4853C38.6424 62.4951 39.8694 61.9999 41.3333 61.9999C42.7972 61.9999 44.0243 62.4951 45.0146 63.4853C46.0049 64.4756 46.5 65.7027 46.5 67.1666C46.5 68.6305 46.0049 69.8576 45.0146 70.8478C44.0243 71.8381 42.7972 72.3333 41.3333 72.3333ZM82.6667 72.3333C81.2028 72.3333 79.9757 71.8381 78.9854 70.8478C77.9951 69.8576 77.5 68.6305 77.5 67.1666C77.5 65.7027 77.9951 64.4756 78.9854 63.4853C79.9757 62.4951 81.2028 61.9999 82.6667 61.9999C84.1306 61.9999 85.3576 62.4951 86.3479 63.4853C87.3382 64.4756 87.8333 65.7027 87.8333 67.1666C87.8333 68.6305 87.3382 69.8576 86.3479 70.8478C85.3576 71.8381 84.1306 72.3333 82.6667 72.3333ZM62 92.9999C60.5361 92.9999 59.309 92.5048 58.3187 91.5145C57.3285 90.5242 56.8333 89.2971 56.8333 87.8333C56.8333 86.3694 57.3285 85.1423 58.3187 84.152C59.309 83.1617 60.5361 82.6666 62 82.6666C63.4639 82.6666 64.691 83.1617 65.6812 84.152C66.6715 85.1423 67.1667 86.3694 67.1667 87.8333C67.1667 89.2971 66.6715 90.5242 65.6812 91.5145C64.691 92.5048 63.4639 92.9999 62 92.9999ZM41.3333 92.9999C39.8694 92.9999 38.6424 92.5048 37.6521 91.5145C36.6618 90.5242 36.1667 89.2971 36.1667 87.8333C36.1667 86.3694 36.6618 85.1423 37.6521 84.152C38.6424 83.1617 39.8694 82.6666 41.3333 82.6666C42.7972 82.6666 44.0243 83.1617 45.0146 84.152C46.0049 85.1423 46.5 86.3694 46.5 87.8333C46.5 89.2971 46.0049 90.5242 45.0146 91.5145C44.0243 92.5048 42.7972 92.9999 41.3333 92.9999ZM82.6667 92.9999C81.2028 92.9999 79.9757 92.5048 78.9854 91.5145C77.9951 90.5242 77.5 89.2971 77.5 87.8333C77.5 86.3694 77.9951 85.1423 78.9854 84.152C79.9757 83.1617 81.2028 82.6666 82.6667 82.6666C84.1306 82.6666 85.3576 83.1617 86.3479 84.152C87.3382 85.1423 87.8333 86.3694 87.8333 87.8333C87.8333 89.2971 87.3382 90.5242 86.3479 91.5145C85.3576 92.5048 84.1306 92.9999 82.6667 92.9999Z" fill="#FBFBFE"/>
</svg>
