<svg width="72" height="72" viewBox="0 0 72 72" fill="none" xmlns="http://www.w3.org/2000/svg">
<path d="M36 26.1C33.2245 26.1 30.8555 25.119 28.893 23.157C26.931 21.1945 25.95 18.8255 25.95 16.05C25.95 13.2745 26.931 10.9055 28.893 8.943C30.8555 6.981 33.2245 6 36 6C38.7755 6 41.1445 6.981 43.107 8.943C45.069 10.9055 46.05 13.2745 46.05 16.05C46.05 18.8255 45.069 21.1945 43.107 23.157C41.1445 25.119 38.7755 26.1 36 26.1ZM36 21.6C37.65 21.6 38.9875 21.0875 40.0125 20.0625C41.0375 19.0375 41.55 17.7 41.55 16.05C41.55 14.4 41.0375 13.0625 40.0125 12.0375C38.9875 11.0125 37.65 10.5 36 10.5C34.35 10.5 33.0125 11.0125 31.9875 12.0375C30.9625 13.0625 30.45 14.4 30.45 16.05C30.45 17.7 30.9625 19.0375 31.9875 20.0625C33.0125 21.0875 34.35 21.6 36 21.6ZM36 66L18 48C17.1 47.1 16.375 45.9875 15.825 44.6625C15.275 43.3375 15 41.8 15 40.05C15 37.25 15.9875 34.8625 17.9625 32.8875C19.9375 30.9125 22.325 29.925 25.125 29.925C26.445 29.925 27.6625 30.225 28.7775 30.825C29.8925 31.425 30.875 32.15 31.725 33L36 37.275L40.275 33C41.125 32.15 42.1075 31.425 43.2225 30.825C44.3375 30.225 45.555 29.925 46.875 29.925C49.675 29.925 52.0625 30.9125 54.0375 32.8875C56.0125 34.8625 57 37.25 57 40.05C57 41.8 56.725 43.3375 56.175 44.6625C55.625 45.9875 54.9 47.1 54 48L36 66ZM36 59.475L50.7 44.775C51.3 44.1845 51.75 43.5118 52.05 42.7568C52.35 42.0023 52.5 41.1 52.5 40.05C52.5 38.55 51.9375 37.2375 50.8125 36.1125C49.6875 34.9875 48.3723 34.425 46.8668 34.425C46.1723 34.425 45.525 34.55 44.925 34.8C44.325 35.05 43.825 35.375 43.425 35.775L36 43.2L28.575 35.775C28.175 35.375 27.675 35.05 27.075 34.8C26.475 34.55 25.825 34.425 25.125 34.425C23.625 34.425 22.3125 34.9875 21.1875 36.1125C20.0625 37.2375 19.5 38.55 19.5 40.05C19.5 41.1 19.65 42 19.95 42.75C20.25 43.5 20.7 44.175 21.3 44.775L36 59.475Z" fill="#040316"/>
</svg>
