<svg width="124" height="124" viewBox="0 0 124 124" fill="none" xmlns="http://www.w3.org/2000/svg">
<path d="M30.9999 72.3333H46.8874L72.6019 46.4999C73.3735 45.7249 73.9521 44.8423 74.3379 43.852C74.7237 42.8617 74.9166 41.893 74.9166 40.9458C74.9166 39.9985 74.7444 39.0513 74.3999 38.1041C74.0555 37.1569 73.4958 36.2958 72.7207 35.5208L67.9674 30.717C67.1752 29.9584 66.3055 29.3853 65.3582 28.9978C64.411 28.6103 63.4207 28.4166 62.3874 28.4166C61.4402 28.4166 60.493 28.5888 59.5457 28.9333C58.5985 29.2777 57.7357 29.8374 56.9572 30.6124L30.9999 56.4458V72.3333ZM38.7499 64.5833V59.6749L51.9249 46.6291L54.3791 48.9541L56.7041 51.4082L43.6583 64.5833H38.7499ZM54.3791 48.9541L56.7041 51.4082L51.9249 46.6291L54.3791 48.9541ZM56.1874 72.3333H92.9999V64.5833H63.9374L56.1874 72.3333ZM10.3333 113.667V18.0833C10.3333 16.0166 11.1083 14.2083 12.6583 12.6583C14.2083 11.1083 16.0166 10.3333 18.0833 10.3333H105.917C107.983 10.3333 109.792 11.1083 111.342 12.6583C112.892 14.2083 113.667 16.0166 113.667 18.0833V85.2499C113.667 87.3166 112.892 89.1249 111.342 90.6749C109.792 92.2249 107.983 92.9999 105.917 92.9999H30.9999L10.3333 113.667ZM27.6416 85.2499H105.917V18.0833H18.0833V95.5833L27.6416 85.2499Z" fill="#FBFBFE"/>
</svg>
