<svg width="72" height="72" viewBox="0 0 72 72" fill="none" xmlns="http://www.w3.org/2000/svg">
<path d="M54.3484 56.9032L39.0774 41.6323C37.9162 42.6387 36.5621 43.4226 35.0153 43.9839C33.4684 44.5452 31.8225 44.8258 30.0774 44.8258C25.8906 44.8258 22.3471 43.3742 19.447 40.471C16.5469 37.5677 15.0968 34.0645 15.0968 29.9613C15.0968 25.8581 16.5484 22.3548 19.4516 19.4516C22.3549 16.5484 25.8678 15.0968 29.9903 15.0968C34.1129 15.0968 37.6162 16.5484 40.5 19.4516C43.3839 22.3548 44.8258 25.861 44.8258 29.97C44.8258 31.6287 44.5549 33.2323 44.0129 34.7806C43.471 36.329 42.6581 37.7806 41.5742 39.1355L56.9033 54.3484L54.3484 56.9032ZM30.0194 41.3419C33.1645 41.3419 35.838 40.229 38.0398 38.0032C40.2413 35.7774 41.342 33.0968 41.342 29.9613C41.342 26.8258 40.2413 24.1452 38.0398 21.9194C35.838 19.6935 33.1645 18.5806 30.0194 18.5806C26.8421 18.5806 24.1413 19.6935 21.9171 21.9194C19.6928 24.1452 18.5807 26.8258 18.5807 29.9613C18.5807 33.0968 19.6928 35.7774 21.9171 38.0032C24.1413 40.229 26.8421 41.3419 30.0194 41.3419Z" fill="#040316"/>
</svg>
