<svg width="124" height="124" viewBox="0 0 124 124" fill="none" xmlns="http://www.w3.org/2000/svg">
<path d="M102.817 108.371L68.8458 74.4C66.2625 76.6389 63.2503 78.3827 59.8093 79.6313C56.3683 80.8799 52.7069 81.5042 48.825 81.5042C39.5112 81.5042 31.6286 78.275 25.1772 71.8167C18.7257 65.3583 15.5 57.5653 15.5 48.4375C15.5 39.3097 18.7292 31.5167 25.1875 25.0583C31.6458 18.6 39.4604 15.3708 48.6312 15.3708C57.8021 15.3708 65.5951 18.6 72.0104 25.0583C78.4257 31.5167 81.6333 39.3162 81.6333 48.4569C81.6333 52.1468 81.0306 55.7139 79.825 59.1583C78.6194 62.6028 76.8111 65.832 74.4 68.8458L108.5 102.688L102.817 108.371ZM48.6958 73.7542C55.6924 73.7542 61.6396 71.2785 66.5376 66.3271C71.4348 61.3757 73.8833 55.4125 73.8833 48.4375C73.8833 41.4625 71.4348 35.4993 66.5376 30.5479C61.6396 25.5965 55.6924 23.1208 48.6958 23.1208C41.6278 23.1208 35.6199 25.5965 30.6719 30.5479C25.724 35.4993 23.25 41.4625 23.25 48.4375C23.25 55.4125 25.724 61.3757 30.6719 66.3271C35.6199 71.2785 41.6278 73.7542 48.6958 73.7542Z" fill="#FBFBFE"/>
</svg>
