<svg width="72" height="72" viewBox="0 0 72 72" fill="none" xmlns="http://www.w3.org/2000/svg">
<path d="M36 66C31.75 66 27.8 65.2375 24.15 63.7125C20.5 62.1875 17.325 60.075 14.625 57.375C11.925 54.675 9.8125 51.5 8.2875 47.85C6.7625 44.2 6 40.25 6 36C6 31.8 6.7625 27.875 8.2875 24.225C9.8125 20.575 11.925 17.4 14.625 14.7C17.325 12 20.5 9.875 24.15 8.325C27.8 6.775 31.75 6 36 6C39.75 6 43.25 6.6 46.5 7.8C49.75 9 52.675 10.65 55.275 12.75L52.05 15.975C49.85 14.225 47.4 12.875 44.7 11.925C42 10.975 39.1 10.5 36 10.5C28.75 10.5 22.6875 12.9375 17.8125 17.8125C12.9375 22.6875 10.5 28.75 10.5 36C10.5 43.25 12.9375 49.3125 17.8125 54.1875C22.6875 59.0625 28.75 61.5 36 61.5C43.25 61.5 49.3125 59.0625 54.1875 54.1875C59.0625 49.3125 61.5 43.25 61.5 36C61.5 34.5 61.3875 33.0375 61.1625 31.6125C60.9375 30.1875 60.6 28.8 60.15 27.45L63.6 24C64.4 25.85 65 27.775 65.4 29.775C65.8 31.775 66 33.85 66 36C66 40.25 65.225 44.2 63.675 47.85C62.125 51.5 60 54.675 57.3 57.375C54.6 60.075 51.425 62.1875 47.775 63.7125C44.125 65.2375 40.2 66 36 66ZM31.575 49.65L19.2 37.2L22.575 33.825L31.575 42.825L62.625 11.775L66.075 15.15L31.575 49.65Z" fill="#040316"/>
</svg>
